HIERARCHY
ROOT Root
{
  OFFSET 0.0 0.0 0.0
  CHANNELS 6 Xposition Yposition Zposition Zrotation Yrotation Xrotation
  JOINT Hips
  {
    OFFSET 0.0 100.0 0.0
    CHANNELS 6 Xposition Yposition Zposition Zrotation Yrotation Xrotation
    JOINT Spine1
    {
      OFFSET 5.003913 -0.037094 -0.013727
      CHANNELS 3 Zrotation Yrotation Xrotation
      JOINT Spine2
      {
        OFFSET 7.125363 -1e-06 0.0
        CHANNELS 3 Zrotation Yrotation Xrotation
        JOINT Chest
        {
          OFFSET 7.594027 1e-06 0.0
          CHANNELS 3 Zrotation Yrotation Xrotation
          JOINT Neck1
          {
            OFFSET 26.313086 -0.460272 -0.181672
            CHANNELS 3 Zrotation Yrotation Xrotation
            JOINT Neck2
            {
              OFFSET 8.045911 0.0 0.0
              CHANNELS 3 Zrotation Yrotation Xrotation
              JOINT Head
              {
                OFFSET 6.432774 0.0 0.0
                CHANNELS 3 Zrotation Yrotation Xrotation
                JOINT HeadEnd
                {
                  OFFSET 16.169773 0.06451 0.00362
                  CHANNELS 3 Zrotation Yrotation Xrotation
                }
                JOINT Jaw
                {
                  OFFSET 0.108741 3.12938 0.002639
                  CHANNELS 3 Zrotation Yrotation Xrotation
                }
                JOINT LeftEye
                {
                  OFFSET 4.45173 8.166359 3.206392
                  CHANNELS 3 Zrotation Yrotation Xrotation
                }
                JOINT RightEye
                {
                  OFFSET 4.436895 8.135758 -3.222429
                  CHANNELS 3 Zrotation Yrotation Xrotation
                }
              }
            }
          }
          JOINT LeftShoulder
          {
            OFFSET 23.218927 5.195579 1.621656
            CHANNELS 3 Zrotation Yrotation Xrotation
            JOINT LeftArm
            {
              OFFSET 15.902118 2e-06 -2e-06
              CHANNELS 3 Zrotation Yrotation Xrotation
              JOINT LeftForeArm
              {
                OFFSET 28.739307 0.0 -1e-06
                CHANNELS 3 Zrotation Yrotation Xrotation
                JOINT LeftHand
                {
                  OFFSET 27.093981 -4e-06 0.0
                  CHANNELS 3 Zrotation Yrotation Xrotation
                  JOINT LeftHandThumb1
                  {
                    OFFSET 2.276781 3.380274 0.83384
                    CHANNELS 3 Zrotation Yrotation Xrotation
                    JOINT LeftHandThumb2
                    {
                      OFFSET 4.705309 -1e-06 -1e-06
                      CHANNELS 3 Zrotation Yrotation Xrotation
                      JOINT LeftHandThumb3
                      {
                        OFFSET 2.798515 0.0 3e-06
                        CHANNELS 3 Zrotation Yrotation Xrotation
                        JOINT LeftHandThumbEnd
                        {
                          OFFSET 3.180793 4e-06 -4e-06
                          CHANNELS 3 Zrotation Yrotation Xrotation
                        }
                      }
                    }
                  }
                  JOINT LeftHandIndex1
                  {
                    OFFSET 3.247786 2.352677 0.137192
                    CHANNELS 3 Zrotation Yrotation Xrotation
                    JOINT LeftHandIndex2
                    {
                      OFFSET 6.367095 1e-06 0.0
                      CHANNELS 3 Zrotation Yrotation Xrotation
                      JOINT LeftHandIndex3
                      {
                        OFFSET 3.662364 0.0 0.0
                        CHANNELS 3 Zrotation Yrotation Xrotation
                        JOINT LeftHandIndex4
                        {
                          OFFSET 2.329242 4e-06 -4e-06
                          CHANNELS 3 Zrotation Yrotation Xrotation
                          JOINT LeftHandIndexEnd
                          {
                            OFFSET 2.767823 1e-06 0.0
                            CHANNELS 3 Zrotation Yrotation Xrotation
                          }
                        }
                      }
                    }
                  }
                  JOINT LeftHandMiddle1
                  {
                    OFFSET 3.163612 0.945023 -0.406112
                    CHANNELS 3 Zrotation Yrotation Xrotation
                    JOINT LeftHandMiddle2
                    {
                      OFFSET 6.276789 3e-06 0.0
                      CHANNELS 3 Zrotation Yrotation Xrotation
                      JOINT LeftHandMiddle3
                      {
                        OFFSET 4.35652 -1e-06 4e-06
                        CHANNELS 3 Zrotation Yrotation Xrotation
                        JOINT LeftHandMiddle4
                        {
                          OFFSET 2.996877 0.0 8e-06
                          CHANNELS 3 Zrotation Yrotation Xrotation
                          JOINT LeftHandMiddleEnd
                          {
                            OFFSET 2.323256 3e-06 -4e-06
                            CHANNELS 3 Zrotation Yrotation Xrotation
                          }
                        }
                      }
                    }
                  }
                  JOINT LeftHandRing1
                  {
                    OFFSET 2.882606 -0.309162 0.107445
                    CHANNELS 3 Zrotation Yrotation Xrotation
                    JOINT LeftHandRing2
                    {
                      OFFSET 6.033198 0.0 4e-06
                      CHANNELS 3 Zrotation Yrotation Xrotation
                      JOINT LeftHandRing3
                      {
                        OFFSET 4.350578 3e-06 0.0
                        CHANNELS 3 Zrotation Yrotation Xrotation
                        JOINT LeftHandRing4
                        {
                          OFFSET 2.651321 2e-06 -7e-06
                          CHANNELS 3 Zrotation Yrotation Xrotation
                          JOINT LeftHandRingEnd
                          {
                            OFFSET 1.937663 1e-06 -4e-06
                            CHANNELS 3 Zrotation Yrotation Xrotation
                          }
                        }
                      }
                    }
                  }
                  JOINT LeftHandPinky1
                  {
                    OFFSET 2.865315 -1.525436 0.575687
                    CHANNELS 3 Zrotation Yrotation Xrotation
                    JOINT LeftHandPinky2
                    {
                      OFFSET 5.54936 1e-06 -8e-06
                      CHANNELS 3 Zrotation Yrotation Xrotation
                      JOINT LeftHandPinky3
                      {
                        OFFSET 3.070974 0.0 -4e-06
                        CHANNELS 3 Zrotation Yrotation Xrotation
                        JOINT LeftHandPinky4
                        {
                          OFFSET 1.549672 1e-06 0.0
                          CHANNELS 3 Zrotation Yrotation Xrotation
                          JOINT LeftHandPinkyEnd
                          {
                            OFFSET 1.952123 0.0 0.0
                            CHANNELS 3 Zrotation Yrotation Xrotation
                          }
                        }
                      }
                    }
                  }
                }
              }
            }
          }
          JOINT RightShoulder
          {
            OFFSET 23.161716 5.296122 -1.380114
            CHANNELS 3 Zrotation Yrotation Xrotation
            JOINT RightArm
            {
              OFFSET -16.027195 -2e-06 1.1e-05
              CHANNELS 3 Zrotation Yrotation Xrotation
              JOINT RightForeArm
              {
                OFFSET -28.736639 4e-06 2e-06
                CHANNELS 3 Zrotation Yrotation Xrotation
                JOINT RightHand
                {
                  OFFSET -27.133619 6e-06 0.0
                  CHANNELS 3 Zrotation Yrotation Xrotation
                  JOINT RightHandThumb1
                  {
                    OFFSET -2.274328 -3.351035 -0.83067
                    CHANNELS 3 Zrotation Yrotation Xrotation
                    JOINT RightHandThumb2
                    {
                      OFFSET -4.703594 -3e-06 2e-06
                      CHANNELS 3 Zrotation Yrotation Xrotation
                      JOINT RightHandThumb3
                      {
                        OFFSET -2.794935 -4e-06 -3e-06
                        CHANNELS 3 Zrotation Yrotation Xrotation
                        JOINT RightHandThumbEnd
                        {
                          OFFSET -3.183852 4e-06 1e-06
                          CHANNELS 3 Zrotation Yrotation Xrotation
                        }
                      }
                    }
                  }
                  JOINT RightHandIndex1
                  {
                    OFFSET -3.253496 -2.33755 -0.127667
                    CHANNELS 3 Zrotation Yrotation Xrotation
                    JOINT RightHandIndex2
                    {
                      OFFSET -6.344434 0.0 0.0
                      CHANNELS 3 Zrotation Yrotation Xrotation
                      JOINT RightHandIndex3
                      {
                        OFFSET -3.654871 0.0 -8e-06
                        CHANNELS 3 Zrotation Yrotation Xrotation
                        JOINT RightHandIndex4
                        {
                          OFFSET -2.327586 -1e-06 0.0
                          CHANNELS 3 Zrotation Yrotation Xrotation
                          JOINT RightHandIndexEnd
                          {
                            OFFSET -2.770001 3e-06 8e-06
                            CHANNELS 3 Zrotation Yrotation Xrotation
                          }
                        }
                      }
                    }
                  }
                  JOINT RightHandMiddle1
                  {
                    OFFSET -3.168223 -0.944764 0.411762
                    CHANNELS 3 Zrotation Yrotation Xrotation
                    JOINT RightHandMiddle2
                    {
                      OFFSET -6.266691 -1e-06 -4e-06
                      CHANNELS 3 Zrotation Yrotation Xrotation
                      JOINT RightHandMiddle3
                      {
                        OFFSET -4.348901 0.0 0.0
                        CHANNELS 3 Zrotation Yrotation Xrotation
                        JOINT RightHandMiddle4
                        {
                          OFFSET -3.00024 2e-06 -4e-06
                          CHANNELS 3 Zrotation Yrotation Xrotation
                          JOINT RightHandMiddleEnd
                          {
                            OFFSET -2.321477 -4e-06 -4e-06
                            CHANNELS 3 Zrotation Yrotation Xrotation
                          }
                        }
                      }
                    }
                  }
                  JOINT RightHandRing1
                  {
                    OFFSET -2.885654 0.293261 -0.119232
                    CHANNELS 3 Zrotation Yrotation Xrotation
                    JOINT RightHandRing2
                    {
                      OFFSET -6.032835 -1e-06 -4e-06
                      CHANNELS 3 Zrotation Yrotation Xrotation
                      JOINT RightHandRing3
                      {
                        OFFSET -4.33881 0.0 -4e-06
                        CHANNELS 3 Zrotation Yrotation Xrotation
                        JOINT RightHandRing4
                        {
                          OFFSET -2.654903 -4e-06 -4e-06
                          CHANNELS 3 Zrotation Yrotation Xrotation
                          JOINT RightHandRingEnd
                          {
                            OFFSET -1.935122 0.0 4e-06
                            CHANNELS 3 Zrotation Yrotation Xrotation
                          }
                        }
                      }
                    }
                  }
                  JOINT RightHandPinky1
                  {
                    OFFSET -2.866241 1.503904 -0.60527
                    CHANNELS 3 Zrotation Yrotation Xrotation
                    JOINT RightHandPinky2
                    {
                      OFFSET -5.553177 -2e-06 0.0
                      CHANNELS 3 Zrotation Yrotation Xrotation
                      JOINT RightHandPinky3
                      {
                        OFFSET -3.062664 -1e-06 -4e-06
                        CHANNELS 3 Zrotation Yrotation Xrotation
                        JOINT RightHandPinky4
                        {
                          OFFSET -1.546529 2e-06 4e-06
                          CHANNELS 3 Zrotation Yrotation Xrotation
                          JOINT RightHandPinkyEnd
                          {
                            OFFSET -1.952341 0.0 -4e-06
                            CHANNELS 3 Zrotation Yrotation Xrotation
                          }
                        }
                      }
                    }
                  }
                }
              }
            }
          }
        }
      }
    }
    JOINT LeftLeg
    {
      OFFSET -8.443107 2.567604 10.043214
      CHANNELS 3 Zrotation Yrotation Xrotation
      JOINT LeftShin
      {
        OFFSET 43.229198 1e-06 -1e-06
        CHANNELS 3 Zrotation Yrotation Xrotation
        JOINT LeftFoot
        {
          OFFSET 42.298611 1e-06 1e-06
          CHANNELS 3 Zrotation Yrotation Xrotation
          JOINT LeftToeBase
          {
            OFFSET 14.165858 1e-06 0.0
            CHANNELS 3 Zrotation Yrotation Xrotation
            JOINT LeftToeEnd
            {
              OFFSET 6.7141 -0.234461 0.0
              CHANNELS 3 Zrotation Yrotation Xrotation
            }
          }
        }
      }
    }
    JOINT RightLeg
    {
      OFFSET -8.303923 2.592729 -10.047278
      CHANNELS 3 Zrotation Yrotation Xrotation
      JOINT RightShin
      {
        OFFSET -43.369682 0.0 1e-06
        CHANNELS 3 Zrotation Yrotation Xrotation
        JOINT RightFoot
        {
          OFFSET -42.260784 4e-06 2e-06
          CHANNELS 3 Zrotation Yrotation Xrotation
          JOINT RightToeBase
          {
            OFFSET -14.222245 -2e-06 -1e-06
            CHANNELS 3 Zrotation Yrotation Xrotation
            JOINT RightToeEnd
            {
              OFFSET -6.660062 0.232574 -2e-06
              CHANNELS 3 Zrotation Yrotation Xrotation
            }
          }
        }
      }
    }
  }
}
MOTION
Frames: 4
Frame Time: 0.03333333333333333
0.0 0.0 0.0 0.0 -0.0 0.0 -0.406763 100.266228 0.937552 89.994514 0.425933 89.613747 -0.403378 0.496869 0.191026 -11.034643 -0.330139 0.696759 16.598946 -0.714781 -1.355241 15.222501 0.580867 2.600753 -2.598996 -0.544572 3.220264 -39.750484 1.842112 2.88605 8e-06 -1e-06 0.0 0.064634 -0.013303 -0.064284 0.031887 -0.081828 -0.097194 -0.001248 0.058802 -0.0218 -104.672287 -73.279617 118.121689 47.545639 -57.859051 2.716536 37.633904 0.945523 0.222484 5.394808 6.576555 6.472038 17.636627 -26.322733 52.411201 -19.466669 -14.395602 29.410398 -1e-06 -8.774824 -2e-06 15.256884 -18.237396 6.744078 -0.609777 -1.795653 -3.889328 -4.807088 -11.046813 -2.93785 6e-06 -20.976019 -0.0 -5.019969 -25.03356 -4.031879 6e-06 0.0 -1e-06 -10.634532 -5.686967 -3.56559 10.573277 -17.922955 -3.113901 5e-06 -13.821206 -0.0 -0.501773 -31.181507 -4.027017 -11.826673 -59.291309 7.610643 -13.982713 -7.150197 -2.875044 13.77273 -8.401497 -3.218243 0.347739 -34.211555 0.771652 -0.963025 -17.733372 2.621022 -0.0 -0.0 0.0 -17.346418 -20.095219 -4.201785 21.757561 -1.638377 3.866422 3e-06 -6.338823 0.0 -1.697585 -22.591745 -6.194004 1e-06 -5e-06 -3e-06 54.204281 -75.516701 141.530792 47.401424 -55.567734 4.19914 35.827003 -0.232625 -0.01882 -2.052282 7.727754 4.318439 22.182108 -20.375893 49.933319 -16.701817 -16.74353 28.47653 -5e-06 -12.690601 -1e-06 16.199425 -17.480846 2.722331 -0.10592 -1.513857 -4.275883 -5.039038 -5.612869 -2.953553 5e-06 -11.020524 -2e-06 -6.111294 -15.89533 -3.840471 0.0 0.0 -0.0 -10.283369 -5.680288 -4.341838 11.028296 -11.302406 -2.372635 -1.384265 -14.238581 -6.320122 -0.625436 -26.924189 -3.8276 -4.266694 -49.786263 -3.656664 -13.708523 -7.363473 -3.720938 18.141151 -14.05274 -3.242678 9e-06 -18.787266 -2e-06 -0.429711 -8.456046 2.555504 1e-06 -2e-06 1e-06 -15.923531 -20.094482 -5.473586 30.419207 -7.190826 1.735926 4e-06 -8.162926 -2e-06 -1.861901 -22.861467 -6.167942 -1e-06 -2e-06 0.0 -179.171448 -2.485367 -0.865852 10.827954 -0.035669 -0.157419 -78.999718 -8.814376 -6.60443 -4.171477 1.690418 2.21505 -0.999998 0.0 -0.0 1.04808 -4.38195 -0.221169 7.434277 -0.057413 0.161492 -77.342949 -0.442034 -4.857563 -3.891868 0.677896 1.728686 -1.000001 0.0 0.0 
0.0 0.0 0.0 0.0 -0.0 0.0 -0.372318 100.311302 0.862335 89.92054 0.316338 89.29911 -0.299471 0.539717 0.180834 -10.962575 -0.313084 0.692431 16.484634 -0.705909 -1.379422 15.050459 0.734074 2.603398 -2.624602 -0.507938 3.281338 -39.949219 1.641521 3.02632 6e-06 -0.0 -0.0 0.045846 -0.020073 -0.071235 0.039326 -0.086496 -0.098123 0.009917 0.050143 -0.034472 -102.493843 -73.23893 115.814507 45.977112 -58.502129 -0.927959 42.745647 1.146763 0.301658 7.036839 7.199899 5.841431 17.636637 -26.322737 52.411194 -19.466648 -14.395594 29.410381 0.0 -8.774821 -4e-06 15.345508 -18.250753 6.670426 -0.609776 -1.795652 -3.889324 -4.807087 -11.046805 -2.93785 3e-06 -20.976011 4e-06 -5.01997 -25.033548 -4.031876 6e-06 2e-06 0.0 -10.634532 -5.686968 -3.565585 10.573271 -17.922943 -3.113896 3e-06 -13.821203 1e-06 -0.501784 -31.181488 -4.02701 -11.94379 -59.372658 7.680182 -13.982714 -7.150197 -2.875041 13.772727 -8.401486 -3.218238 0.347733 -34.21154 0.771659 -0.963034 -17.733362 2.621024 1e-06 -1e-06 -1e-06 -17.346416 -20.095213 -4.201779 21.757555 -1.638375 3.86643 -1e-06 -6.338821 1e-06 -1.697589 -22.591742 -6.194003 -1e-06 -2e-06 -2e-06 54.856102 -75.479759 141.111465 45.847168 -54.771191 2.090003 41.774521 -0.046468 -0.007751 -2.006004 7.364867 2.706449 22.182119 -20.375891 49.933315 -16.701809 -16.743528 28.47653 -3e-06 -12.690601 -2e-06 16.236559 -17.524723 2.838285 -0.105918 -1.513854 -4.275884 -5.039042 -5.612871 -2.953554 2e-06 -11.020526 -2e-06 -6.111298 -15.895334 -3.840473 -1e-06 1e-06 0.0 -10.283371 -5.680287 -4.341838 11.02829 -11.302404 -2.372634 -1.38427 -14.238581 -6.32012 -0.62544 -26.924187 -3.827601 -4.329007 -50.056034 -3.570932 -13.708522 -7.363475 -3.720942 18.141146 -14.052741 -3.242674 7e-06 -18.787271 -4e-06 -0.429713 -8.456045 2.555503 2e-06 -0.0 -1e-06 -15.923538 -20.094482 -5.473583 30.41921 -7.190824 1.735926 0.0 -8.162929 -1e-06 -1.861902 -22.861469 -6.167945 -1e-06 -2e-06 -1e-06 -179.492981 -2.530971 -0.937965 11.234547 -0.028556 -0.123364 -78.951454 -8.980634 -6.737384 -4.265514 1.74202 2.230296 -0.999998 1e-06 0.0 1.066537 -4.312991 -0.224701 6.9217 -0.051147 0.181155 -76.919785 -0.1189 -4.792738 -3.961224 0.683003 1.739193 -1.000002 -0.0 -0.0 
0.0 0.0 0.0 0.0 -0.0 0.0 -0.351552 100.327553 0.789213 89.890144 0.186758 89.159431 -0.225138 0.540832 0.174043 -10.908403 -0.307026 0.699162 16.384193 -0.666837 -1.401816 14.949136 0.914391 2.577441 -2.671166 -0.455645 3.219369 -39.995136 1.296602 3.269311 4e-06 0.0 0.0 0.027554 -0.025907 -0.093464 0.014427 -0.092175 -0.116264 -0.009245 0.043762 -0.061534 -100.068672 -73.329704 113.150688 43.793167 -59.62183 -6.603694 49.227501 1.142504 0.345036 9.160582 7.205508 3.50753 17.636629 -26.322723 52.411194 -19.466665 -14.395598 29.410389 1e-06 -8.774824 -1e-06 15.46898 -18.083286 6.616735 -0.609773 -1.795652 -3.889328 -4.80709 -11.046812 -2.937851 5e-06 -20.976019 -0.0 -5.019969 -25.03356 -4.031885 5e-06 1e-06 1e-06 -10.634534 -5.686972 -3.56559 10.573277 -17.922949 -3.113904 4e-06 -13.821209 -2e-06 -0.501774 -31.181505 -4.02702 -12.114337 -59.465794 7.820433 -13.982715 -7.1502 -2.875042 13.772733 -8.401491 -3.218243 0.347735 -34.211552 0.771649 -0.963028 -17.73337 2.621017 -3e-06 1e-06 2e-06 -17.34642 -20.095221 -4.201782 21.757561 -1.638373 3.866428 2e-06 -6.338825 0.0 -1.697586 -22.591743 -6.194009 1e-06 -5e-06 -3e-06 54.881931 -75.426407 141.209793 42.950161 -53.981785 -0.947547 49.510853 -0.137425 -0.064923 -1.150682 7.056417 -2.000828 22.182119 -20.375895 49.933327 -16.701818 -16.743536 28.476538 -2e-06 -12.690605 -3e-06 16.099443 -17.434462 3.062095 -0.10592 -1.513857 -4.275883 -5.039046 -5.612876 -2.953555 5e-06 -11.020527 -3e-06 -6.111298 -15.895338 -3.840475 0.0 0.0 1e-06 -10.283373 -5.68029 -4.341838 11.028297 -11.302407 -2.372634 -1.384269 -14.238584 -6.320124 -0.625436 -26.924194 -3.827606 -4.281139 -50.158043 -3.52883 -13.708529 -7.363479 -3.720936 18.141155 -14.052739 -3.242676 5e-06 -18.78727 -5e-06 -0.429712 -8.456039 2.555504 1e-06 -2e-06 1e-06 -15.923536 -20.09449 -5.473584 30.419218 -7.190824 1.735924 3e-06 -8.162925 -2e-06 -1.861906 -22.861469 -6.167945 1e-06 -4e-06 -2e-06 -179.791275 -2.59843 -0.997454 11.568081 -0.034069 -0.098091 -78.961899 -9.062738 -6.804489 -4.345966 1.767894 2.233707 -1.000001 0.0 -0.0 0.900042 -4.334594 -0.365956 6.821564 -0.019702 0.193939 -76.778252 0.255946 -4.801913 -4.03157 0.707461 1.751413 -1.000001 0.0 -0.0 
0.0 0.0 0.0 0.0 -0.0 0.0 -0.335626 100.322952 0.724932 89.872787 0.039934 89.178154 -0.231086 0.531381 0.185169 -10.918199 -0.29862 0.724579 16.329741 -0.583265 -1.382655 15.051596 1.072479 2.524833 -2.695373 -0.442932 3.193537 -39.92635 0.90552 3.474905 7e-06 0.0 -0.0 0.007048 -0.029305 -0.117174 -0.017834 -0.097989 -0.134678 -0.031771 0.041618 -0.090514 -97.912132 -73.447121 110.736305 42.184036 -60.795837 -14.436318 56.149761 0.6505 0.2263 10.99324 6.815635 -1.859803 17.636633 -26.322733 52.411198 -19.466661 -14.395598 29.410389 -0.0 -8.774821 -2e-06 15.81595 -17.857147 6.578365 -0.609777 -1.795654 -3.889327 -4.807087 -11.046812 -2.93785 7e-06 -20.976019 0.0 -5.019969 -25.03356 -4.03188 3e-06 0.0 -0.0 -10.634531 -5.68697 -3.565588 10.573275 -17.922951 -3.113901 3e-06 -13.821211 2e-06 -0.501774 -31.181505 -4.027016 -12.288444 -59.566635 8.042121 -13.982713 -7.150198 -2.875042 13.77273 -8.401494 -3.218241 0.347735 -34.211555 0.771654 -0.963031 -17.733368 2.621022 1e-06 -0.0 1e-06 -17.346416 -20.095217 -4.201783 21.757557 -1.638376 3.866428 2e-06 -6.338824 1e-06 -1.697587 -22.59174 -6.194004 1e-06 -6e-06 -2e-06 54.260071 -75.426231 141.937241 39.758923 -53.263973 -5.417665 57.636524 -0.501489 -0.052992 0.770499 6.952573 -10.602015 22.182114 -20.375895 49.933296 -16.701807 -16.743528 28.476519 -3e-06 -12.6906 -2e-06 15.931216 -17.377005 3.19643 -0.105921 -1.513856 -4.275881 -5.039039 -5.612871 -2.953555 6e-06 -11.020523 -2e-06 -6.111296 -15.895328 -3.840469 -1e-06 -1e-06 -0.0 -10.283371 -5.680287 -4.341836 11.028291 -11.302404 -2.37263 -1.38427 -14.238577 -6.320118 -0.625441 -26.924185 -3.827599 -4.092805 -50.185333 -3.646168 -13.708525 -7.363475 -3.720938 18.141148 -14.052736 -3.242674 5e-06 -18.787266 -2e-06 -0.429711 -8.456043 2.555503 -2e-06 1e-06 -0.0 -15.923536 -20.094479 -5.473581 30.419205 -7.190824 1.735927 4e-06 -8.162922 -1e-06 -1.861902 -22.861467 -6.167938 -1e-06 -4e-06 -2e-06 179.919327 -2.595726 -1.084939 11.738645 -0.042182 -0.058375 -79.041931 -9.106381 -6.712611 -4.462773 1.774477 2.231246 -1.0 1e-06 -0.0 0.659259 -4.382988 -0.645316 6.90198 0.007368 0.203404 -76.797394 0.645153 -4.837857 -4.193719 0.71607 1.752549 -1.000002 0.0 0.0 
